<svg width="44" height="44" viewBox="0 0 44 44" fill="none" xmlns="http://www.w3.org/2000/svg">
<path d="M0 22C0 9.84974 9.84974 0 22 0C34.1503 0 44 9.84974 44 22C44 34.1503 34.1503 44 22 44C9.84974 44 0 34.1503 0 22Z" fill="#FAFAFA"/>
<path d="M22 10.375C15.5899 10.375 10.375 15.5899 10.375 22C10.375 28.4101 15.5899 33.625 22 33.625C28.4101 33.625 33.625 28.4101 33.625 22C33.625 15.5899 28.4101 10.375 22 10.375ZM29.6861 15.7359C31.069 17.4256 31.9065 19.5776 31.9284 21.9213C31.601 21.8521 28.3181 21.1862 25.0142 21.6017C24.7446 20.9435 24.4901 20.3645 24.1415 19.651C27.8128 18.1521 29.4767 16.0191 29.6861 15.7359ZM28.5822 14.5877C28.4036 14.842 26.9089 16.8511 23.3781 18.1745C21.751 15.185 19.9476 12.7291 19.6731 12.3616C22.822 11.6026 26.1403 12.4211 28.5822 14.5877ZM17.7785 13.0291C18.0403 13.3881 19.8146 15.847 21.4599 18.7717C16.8152 20.0051 12.7243 19.9873 12.2802 19.9815C12.9241 16.9002 15.0005 14.3394 17.7785 13.0291ZM12.0705 22.0151C12.0705 21.9136 12.0725 21.8125 12.0755 21.7117C12.51 21.7206 17.3218 21.7826 22.2805 20.2986C22.5648 20.8549 22.8363 21.4196 23.0855 21.9837C19.495 22.9951 16.2327 25.8991 14.6231 28.6543C13.0372 26.894 12.0705 24.5655 12.0705 22.0151ZM15.9052 29.8486C16.9424 27.7283 19.7573 24.9913 23.7604 23.6256C25.1545 27.2483 25.731 30.2844 25.8787 31.1555C22.6859 32.5155 18.8467 32.1424 15.9052 29.8486ZM27.548 30.2465C27.4462 29.6425 26.9177 26.7357 25.619 23.1668C28.7305 22.6687 31.4643 23.4841 31.804 23.5913C31.3614 26.3541 29.7756 28.7402 27.548 30.2465Z" fill="url(#paint0_linear_3_969)"/>
<defs>
<linearGradient id="paint0_linear_3_969" x1="10.375" y1="8.83042" x2="33.625" y2="35.8199" gradientUnits="userSpaceOnUse">
<stop offset="0.0271195" stop-color="#6C48D3"/>
<stop offset="0.287564" stop-color="#4D4DE2"/>
<stop offset="0.808912" stop-color="#3778FC"/>
<stop offset="0.967351" stop-color="#0370FF"/>
</linearGradient>
</defs>
</svg>
