<svg width="43" height="44" viewBox="0 0 43 44" fill="none" xmlns="http://www.w3.org/2000/svg">
<path d="M0 21.5C0 9.62588 9.62588 0 21.5 0C33.3741 0 43 9.62588 43 21.5V22.5C43 34.3741 33.3741 44 21.5 44C9.62588 44 0 34.3741 0 22.5V21.5Z" fill="#FAFAFA"/>
<path d="M17.6929 28.6281C17.6929 28.7219 17.5863 28.7969 17.4518 28.7969C17.2988 28.8109 17.1921 28.7359 17.1921 28.6281C17.1921 28.5344 17.2988 28.4594 17.4333 28.4594C17.5724 28.4453 17.6929 28.5203 17.6929 28.6281ZM16.2508 28.4172C16.2183 28.5109 16.3111 28.6187 16.4502 28.6469C16.5708 28.6937 16.7099 28.6469 16.7377 28.5531C16.7655 28.4594 16.6774 28.3516 16.5383 28.3094C16.4177 28.2766 16.2833 28.3234 16.2508 28.4172ZM18.3004 28.3375C18.1659 28.3703 18.0732 28.4594 18.0871 28.5672C18.101 28.6609 18.2216 28.7219 18.3607 28.6891C18.4952 28.6562 18.5879 28.5672 18.574 28.4734C18.5601 28.3844 18.4349 28.3234 18.3004 28.3375ZM21.3516 10.375C14.92 10.375 10 15.3109 10 21.8125C10 27.0109 13.2367 31.4594 17.8599 33.025C18.4534 33.1328 18.6621 32.7625 18.6621 32.4578C18.6621 32.1672 18.6482 30.5641 18.6482 29.5797C18.6482 29.5797 15.4022 30.2828 14.7206 28.1828C14.7206 28.1828 14.1919 26.8187 13.4315 26.4672C13.4315 26.4672 12.3696 25.7312 13.5056 25.7453C13.5056 25.7453 14.6603 25.8391 15.2956 26.9547C16.3111 28.7641 18.0129 28.2437 18.676 27.9344C18.7827 27.1844 19.0841 26.6641 19.4179 26.3547C16.8258 26.0641 14.2105 25.6844 14.2105 21.175C14.2105 19.8859 14.5629 19.2391 15.3048 18.4141C15.1843 18.1094 14.7901 16.8531 15.4254 15.2312C16.3946 14.9266 18.625 16.4969 18.625 16.4969C19.5524 16.2344 20.5494 16.0984 21.5371 16.0984C22.5248 16.0984 23.5218 16.2344 24.4492 16.4969C24.4492 16.4969 26.6796 14.9219 27.6488 15.2312C28.2841 16.8578 27.8899 18.1094 27.7694 18.4141C28.5113 19.2437 28.9657 19.8906 28.9657 21.175C28.9657 25.6984 26.2345 26.0594 23.6423 26.3547C24.069 26.725 24.4306 27.4281 24.4306 28.5297C24.4306 30.1094 24.4167 32.0641 24.4167 32.4484C24.4167 32.7531 24.63 33.1234 25.219 33.0156C29.856 31.4594 33 27.0109 33 21.8125C33 15.3109 27.7833 10.375 21.3516 10.375ZM14.5073 26.5422C14.447 26.5891 14.4609 26.6969 14.5397 26.7859C14.6139 26.8609 14.7206 26.8938 14.7808 26.8328C14.8411 26.7859 14.8272 26.6781 14.7484 26.5891C14.6742 26.5141 14.5675 26.4812 14.5073 26.5422ZM14.0065 26.1625C13.974 26.2234 14.0204 26.2984 14.1131 26.3453C14.1873 26.3922 14.28 26.3781 14.3125 26.3125C14.345 26.2516 14.2986 26.1766 14.2058 26.1297C14.1131 26.1016 14.0389 26.1156 14.0065 26.1625ZM15.5089 27.8312C15.4347 27.8922 15.4625 28.0328 15.5692 28.1219C15.6758 28.2297 15.8103 28.2437 15.8706 28.1688C15.9308 28.1078 15.903 27.9672 15.8103 27.8781C15.7083 27.7703 15.5692 27.7563 15.5089 27.8312ZM14.9802 27.1422C14.906 27.1891 14.906 27.3109 14.9802 27.4188C15.0544 27.5266 15.1796 27.5734 15.2399 27.5266C15.3141 27.4656 15.3141 27.3438 15.2399 27.2359C15.175 27.1281 15.0544 27.0813 14.9802 27.1422Z" fill="url(#paint0_linear_3_968)"/>
<defs>
<linearGradient id="paint0_linear_3_968" x1="10" y1="8.86901" x2="32.6182" y2="35.5084" gradientUnits="userSpaceOnUse">
<stop offset="0.0271195" stop-color="#6C48D3"/>
<stop offset="0.287564" stop-color="#4D4DE2"/>
<stop offset="0.808912" stop-color="#3778FC"/>
<stop offset="0.967351" stop-color="#0370FF"/>
</linearGradient>
</defs>
</svg>
