<svg width="41" height="44" viewBox="0 0 41 44" fill="none" xmlns="http://www.w3.org/2000/svg">
<path d="M0 20.5C0 9.17816 9.17816 0 20.5 0C31.8218 0 41 9.17816 41 20.5V23.5C41 34.8218 31.8218 44 20.5 44C9.17816 44 0 34.8218 0 23.5V20.5Z" fill="#FAFAFA"/>
<g clip-path="url(#clip0_3_967)">
<path d="M20.5047 16.6094C17.5234 16.6094 15.1188 19.0141 15.1188 21.9953C15.1188 24.9766 17.5234 27.3812 20.5047 27.3812C23.4859 27.3812 25.8906 24.9766 25.8906 21.9953C25.8906 19.0141 23.4859 16.6094 20.5047 16.6094ZM20.5047 25.4969C18.5781 25.4969 17.0031 23.9265 17.0031 21.9953C17.0031 20.0641 18.5734 18.4937 20.5047 18.4937C22.4359 18.4937 24.0062 20.0641 24.0062 21.9953C24.0062 23.9265 22.4312 25.4969 20.5047 25.4969ZM27.3672 16.3891C27.3672 17.0875 26.8047 17.6453 26.1109 17.6453C25.4125 17.6453 24.8547 17.0828 24.8547 16.3891C24.8547 15.6953 25.4172 15.1328 26.1109 15.1328C26.8047 15.1328 27.3672 15.6953 27.3672 16.3891ZM30.9344 17.6641C30.8547 15.9812 30.4703 14.4906 29.2375 13.2625C28.0094 12.0344 26.5187 11.65 24.8359 11.5656C23.1016 11.4672 17.9031 11.4672 16.1688 11.5656C14.4906 11.6453 13 12.0297 11.7672 13.2578C10.5344 14.4859 10.1547 15.9766 10.0703 17.6594C9.97188 19.3937 9.97188 24.5922 10.0703 26.3265C10.15 28.0094 10.5344 29.5 11.7672 30.7281C13 31.9562 14.4859 32.3406 16.1688 32.425C17.9031 32.5234 23.1016 32.5234 24.8359 32.425C26.5187 32.3453 28.0094 31.9609 29.2375 30.7281C30.4656 29.5 30.85 28.0094 30.9344 26.3265C31.0328 24.5922 31.0328 19.3984 30.9344 17.6641ZM28.6937 28.1875C28.3281 29.1062 27.6203 29.814 26.6969 30.1844C25.3141 30.7328 22.0328 30.6062 20.5047 30.6062C18.9766 30.6062 15.6906 30.7281 14.3125 30.1844C13.3938 29.8187 12.6859 29.1109 12.3156 28.1875C11.7672 26.8047 11.8938 23.5234 11.8938 21.9953C11.8938 20.4672 11.7719 17.1812 12.3156 15.8031C12.6813 14.8844 13.3891 14.1766 14.3125 13.8062C15.6953 13.2578 18.9766 13.3844 20.5047 13.3844C22.0328 13.3844 25.3187 13.2625 26.6969 13.8062C27.6156 14.1719 28.3234 14.8797 28.6937 15.8031C29.2422 17.1859 29.1156 20.4672 29.1156 21.9953C29.1156 23.5234 29.2422 26.8094 28.6937 28.1875Z" fill="url(#paint0_linear_3_967)"/>
</g>
<defs>
<linearGradient id="paint0_linear_3_967" x1="9.99649" y1="10.0962" x2="31.0028" y2="34.4866" gradientUnits="userSpaceOnUse">
<stop offset="0.0271195" stop-color="#6C48D3"/>
<stop offset="0.287564" stop-color="#4D4DE2"/>
<stop offset="0.808912" stop-color="#3778FC"/>
<stop offset="0.967351" stop-color="#0370FF"/>
</linearGradient>
<clipPath id="clip0_3_967">
<rect width="21" height="24" fill="white" transform="translate(10 10)"/>
</clipPath>
</defs>
</svg>
