<svg width="41" height="44" viewBox="0 0 41 44" fill="none" xmlns="http://www.w3.org/2000/svg">
<path d="M0 20.5C0 9.17816 9.17816 0 20.5 0C31.8218 0 41 9.17816 41 20.5V23.5C41 34.8218 31.8218 44 20.5 44C9.17816 44 0 34.8218 0 23.5V20.5Z" fill="#FAFAFA"/>
<path d="M14.7006 31H10.3469V16.9797H14.7006V31ZM12.5214 15.0672C11.1292 15.0672 10 13.914 10 12.5219C10 11.8531 10.2656 11.2118 10.7385 10.739C11.2114 10.2661 11.8527 10.0005 12.5214 10.0005C13.1901 10.0005 13.8315 10.2661 14.3043 10.739C14.7772 11.2118 15.0428 11.8531 15.0428 12.5219C15.0428 13.914 13.9131 15.0672 12.5214 15.0672ZM30.9953 31H26.6509V24.175C26.6509 22.5484 26.6181 20.4625 24.3873 20.4625C22.1237 20.4625 21.7769 22.2297 21.7769 24.0578V31H17.4278V16.9797H21.6034V18.8922H21.6644C22.2456 17.7906 23.6655 16.6281 25.7838 16.6281C30.19 16.6281 31 19.5297 31 23.2984V31H30.9953Z" fill="url(#paint0_linear_3_966)"/>
<defs>
<linearGradient id="paint0_linear_3_966" x1="10" y1="8.60539" x2="30.9994" y2="32.9829" gradientUnits="userSpaceOnUse">
<stop offset="0.0271195" stop-color="#6C48D3"/>
<stop offset="0.287564" stop-color="#4D4DE2"/>
<stop offset="0.808912" stop-color="#3778FC"/>
<stop offset="0.967351" stop-color="#0370FF"/>
</linearGradient>
</defs>
</svg>
